<svg width="17" height="16" viewBox="0 0 17 16" fill="none" xmlns="http://www.w3.org/2000/svg">
<path d="M13.2637 4.65625V11.2188C13.2637 11.6016 12.9629 11.875 12.6074 11.875C12.2246 11.875 11.9512 11.6016 11.9512 11.2188V6.24219L5.63477 12.5586C5.49805 12.6953 5.33398 12.75 5.16992 12.75C4.97852 12.75 4.81445 12.6953 4.70508 12.5586C4.43164 12.3125 4.43164 11.9023 4.70508 11.6562L11.0215 5.3125H6.04492C5.66211 5.3125 5.38867 5.03906 5.38867 4.65625C5.38867 4.30078 5.66211 4 6.04492 4H12.6074C12.9629 4 13.2637 4.30078 13.2637 4.65625Z" fill="#26CA54"/>
</svg>
