<svg width="25" height="24" viewBox="0 0 25 24" fill="none" xmlns="http://www.w3.org/2000/svg">
<path fill-rule="evenodd" clip-rule="evenodd" d="M21.0137 10.6848H12.3034V13.753H17.8381L17.7963 13.8634C17.5401 15.0825 16.8465 16.1714 15.8411 16.9328C14.8357 17.6941 13.5852 18.0776 12.316 18.0136H12.1886C10.5762 17.9633 9.04868 17.2937 7.93615 16.1495C6.82363 15.0054 6.21538 13.4785 6.24281 11.8987C6.27024 10.319 6.93114 8.81322 8.08275 7.70676C9.23435 6.6003 10.7842 5.98196 12.3974 5.98534C13.7727 5.98223 15.0993 6.48355 16.1161 7.39057L18.402 5.3083C16.7821 3.83744 14.6586 3.01394 12.4496 3H12.2909C9.88358 3.0104 7.57559 3.94129 5.85896 5.59424C4.14232 7.2472 3.15282 9.49146 3.10138 11.8486C3.06003 14.2352 3.98836 16.54 5.68215 18.2562C7.37594 19.9724 9.69645 20.9594 12.1332 21H12.3264C17.483 21 21.0095 17.5227 21.0983 12.359C21.1078 11.7997 21.0795 11.2404 21.0137 10.6848Z" fill="#818699"/>
</svg>
