<svg width="374" height="60" viewBox="0 0 374 60" fill="none" xmlns="http://www.w3.org/2000/svg">
<path d="M151.9 24.0653H157.692L149.942 44.4579H143.499L135.749 24.0653H141.745L146.759 40.1759L151.9 24.0653Z" fill="white"/>
<path d="M120.189 44.4578V24.0653H125.045L125.411 28.0624C125.953 26.6487 126.749 25.5629 127.796 24.8027C128.844 24.0398 130.156 23.6584 131.732 23.6584C132.193 23.6584 132.614 23.6991 132.994 23.7805C133.376 23.8618 133.69 23.9712 133.934 24.1059L133.284 28.7947C133.011 28.6866 132.678 28.6053 132.282 28.5506C131.888 28.4972 131.379 28.4692 130.756 28.4692C129.939 28.4692 129.149 28.6676 128.386 29.0642C127.626 29.4584 127.001 30.0559 126.51 30.8594C126.022 31.6604 125.777 32.6724 125.777 33.8954V44.4578H120.189Z" fill="white"/>
<path d="M105.822 44.8647C104.462 44.8647 103.239 44.6206 102.15 44.1324C101.062 43.6416 100.197 42.8598 99.5567 41.788C98.9184 40.7137 98.6006 39.3203 98.6006 37.6078V24.0653H104.189V36.2601C104.189 37.8366 104.515 38.9325 105.166 39.5453C105.819 40.1556 106.759 40.4607 107.983 40.4607C108.553 40.4607 109.108 40.359 109.651 40.1556C110.197 39.9522 110.68 39.6343 111.101 39.1995C111.524 38.7622 111.858 38.1977 112.102 37.5061C112.347 36.8119 112.469 35.9881 112.469 35.0345V24.0653H118.057V44.4579H113.079L112.875 40.9082C112.196 42.2686 111.266 43.2679 110.083 43.9086C108.9 44.5456 107.48 44.8647 105.822 44.8647Z" fill="white"/>
<path d="M95.8564 37.0331C95.3402 38.7762 94.5253 40.2319 93.4103 41.4015C92.294 42.5686 90.9756 43.4382 89.4538 44.0103C87.9307 44.5799 86.2576 44.8647 84.4345 44.8647C81.7697 44.8647 79.466 44.3091 77.5234 43.1967C75.5808 42.0817 74.0856 40.4912 73.038 38.4265C71.9904 36.3593 71.4667 33.8827 71.4667 30.9967C71.4667 28.1158 71.9904 25.6418 73.038 23.5771C74.0856 21.5098 75.5808 19.9194 77.5234 18.8069C79.466 17.692 81.7418 17.1338 84.3531 17.1338C86.2042 17.1338 87.8773 17.3856 89.3725 17.8865C90.8676 18.3887 92.1364 19.1629 93.1814 20.2105C94.229 21.2581 94.9982 22.5574 95.4902 24.106L90.3895 26.2673C89.928 24.6374 89.2212 23.4754 88.2689 22.7837C87.3192 22.0896 86.0974 21.7412 84.6023 21.7412C83.1301 21.7412 81.8435 22.0959 80.7425 22.8041C79.644 23.5097 78.7948 24.5484 78.1947 25.9215C77.5971 27.2945 77.2996 28.9867 77.2996 30.9967C77.2996 32.9838 77.5768 34.6709 78.1337 36.0567C78.693 37.4438 79.5143 38.4914 80.6001 39.1995C81.6884 39.9051 83.022 40.2573 84.6023 40.2573C86.0695 40.2573 87.3395 39.8644 88.4113 39.0775C89.4856 38.288 90.2395 37.0916 90.6743 35.4871L95.8564 37.0331Z" fill="white"/>
<path d="M60.0812 44.8647C57.9352 44.8647 56.065 44.4451 54.472 43.6035C52.8815 42.7593 51.6509 41.549 50.78 39.9725C49.9117 38.396 49.4781 36.4928 49.4781 34.2616C49.4781 32.0316 49.9117 30.1271 50.78 28.5506C51.6509 26.9741 52.8676 25.7663 54.4313 24.9247C55.9938 24.0805 57.7826 23.6584 59.7965 23.6584C61.8611 23.6584 63.6131 24.0742 65.0548 24.9044C66.4991 25.732 67.6001 26.8597 68.3603 28.2862C69.1231 29.7139 69.5045 31.3374 69.5045 33.158C69.5045 33.7047 69.4906 34.2234 69.4639 34.7142C69.4359 35.2024 69.3952 35.6372 69.3418 36.016H53.0684V32.1409H66.8906L64.2004 33.1173C64.2004 31.4061 63.8114 30.089 63.0359 29.166C62.2629 28.2404 61.1695 27.7776 59.7558 27.7776C58.7209 27.7776 57.8297 28.0243 57.0808 28.515C56.3345 29.0032 55.7713 29.7304 55.3925 30.6967C55.0123 31.6604 54.8229 32.8758 54.8229 34.3429C54.8229 35.7846 55.0327 36.9746 55.4535 37.9129C55.873 38.8486 56.4706 39.5491 57.2436 40.0132C58.0191 40.4747 58.9523 40.7048 60.0406 40.7048C61.2369 40.7048 62.2019 40.4747 62.9342 40.0132C63.669 39.5491 64.2411 38.9096 64.648 38.096L69.0977 39.8098C68.6604 40.8675 67.9993 41.7778 67.1144 42.5406C66.2321 43.3034 65.187 43.8819 63.9767 44.2748C62.7663 44.6676 61.467 44.8647 60.0812 44.8647Z" fill="white"/>
<path d="M42.3605 17.8254V37.8112C42.3605 38.7876 42.611 39.5021 43.1132 39.9522C43.6179 40.3997 44.3044 40.6234 45.1728 40.6234C45.8809 40.6234 46.4861 40.5217 46.9883 40.3183C47.493 40.1149 47.9494 39.8377 48.3563 39.4843L49.2513 43.1916C48.6003 43.7103 47.7841 44.1197 46.8052 44.4172C45.825 44.7147 44.7926 44.8647 43.7082 44.8647C42.3478 44.8647 41.1451 44.6613 40.0975 44.2544C39.0499 43.8476 38.2324 43.1954 37.6463 42.2965C37.0628 41.399 36.7716 40.2013 36.7716 38.7062V19.3765L42.3605 17.8254ZM48.8851 24.0653V28.2252H33.0186V24.0653H48.8851Z" fill="white"/>
<path d="M29.0378 21.131C27.8681 21.131 26.996 20.8805 26.4238 20.3783C25.8543 19.8736 25.5695 19.1311 25.5695 18.1509C25.5695 17.144 25.8543 16.3901 26.4238 15.8879C26.996 15.387 27.8681 15.1353 29.0378 15.1353C30.2074 15.1353 31.077 15.387 31.6466 15.8879C32.2187 16.3901 32.506 17.144 32.506 18.1509C32.506 19.1311 32.2187 19.8736 31.6466 20.3783C31.077 20.8805 30.2074 21.131 29.0378 21.131ZM31.8093 24.0653V44.4578H26.2204V24.0653H31.8093Z" fill="white"/>
<path d="M12.2762 17.1338C14.7198 17.1338 16.8658 17.5559 18.7144 18.4001C20.5655 19.2417 22.1432 20.4902 23.4489 22.1481L20.3061 25.7791C19.1937 24.3653 17.9783 23.3266 16.6599 22.6617C15.3402 21.9942 13.8095 21.6599 12.0677 21.6599C10.9286 21.6599 9.98397 21.8099 9.23514 22.1074C8.48885 22.4061 7.94471 22.8015 7.60272 23.2923C7.26327 23.7805 7.09418 24.3234 7.09418 24.9196C7.09418 25.6557 7.37896 26.2762 7.94853 26.7809C8.52064 27.2831 9.50085 27.6963 10.8879 28.0217L15.9021 29.1609C18.5669 29.761 20.4765 30.6534 21.6334 31.8358C22.7891 33.0194 23.3676 34.5489 23.3676 36.4229C23.3676 38.1901 22.9048 39.7055 21.9792 40.9692C21.0562 42.2342 19.7645 43.2005 18.1041 43.8679C16.4463 44.5316 14.5443 44.8647 12.3983 44.8647C10.5192 44.8647 8.79907 44.6409 7.23657 44.1934C5.6728 43.7459 4.27939 43.128 3.05634 42.3372C1.83203 41.5477 0.813669 40.6374 0 39.6063L3.17839 35.8126C3.80517 36.681 4.57943 37.4552 5.50244 38.1367C6.42798 38.8156 7.48194 39.3521 8.66557 39.7487C9.84794 40.1429 11.0926 40.3386 12.3983 40.3386C13.5094 40.3386 14.4541 40.2102 15.2309 39.9522C16.0064 39.6953 16.5912 39.3292 16.9853 38.8537C17.3782 38.3757 17.5752 37.7959 17.5752 37.1145C17.5752 36.4102 17.3362 35.8063 16.8582 35.3041C16.3827 34.7993 15.508 34.4116 14.2341 34.1395L8.76728 32.9139C7.1908 32.5351 5.83807 32.0392 4.70911 31.429C3.58014 30.8162 2.72198 30.0279 2.13588 29.0642C1.55233 28.098 1.26119 26.9487 1.26119 25.6163C1.26119 24.0131 1.69472 22.5727 2.56306 21.2937C3.43394 20.016 4.69131 19.004 6.33645 18.2577C7.98413 17.5089 9.96363 17.1338 12.2762 17.1338Z" fill="white"/>
<path d="M167.577 44.8647C165.431 44.8647 163.56 44.4451 161.967 43.6035C160.377 42.7593 159.146 41.549 158.275 39.9725C157.407 38.396 156.974 36.4928 156.974 34.2616C156.974 32.0316 157.407 30.1271 158.275 28.5506C159.146 26.9741 160.363 25.7663 161.927 24.9247C163.489 24.0805 165.278 23.6584 167.292 23.6584C169.357 23.6584 171.109 24.0742 172.55 24.9044C173.995 25.732 175.096 26.8597 175.856 28.2862C176.619 29.7139 177 31.3374 177 33.158C177 33.7047 176.986 34.2234 176.959 34.7142C176.931 35.2024 176.891 35.6372 176.837 36.016H160.564V32.1409H174.386L171.696 33.1173C171.696 31.4061 171.307 30.089 170.531 29.166C169.758 28.2404 168.665 27.7776 167.251 27.7776C166.216 27.7776 165.325 28.0243 164.576 28.515C163.83 29.0032 163.267 29.7304 162.888 30.6967C162.508 31.6604 162.318 32.8758 162.318 34.3429C162.318 35.7846 162.528 36.9746 162.949 37.9129C163.368 38.8486 163.966 39.5491 164.739 40.0132C165.515 40.4747 166.448 40.7048 167.536 40.7048C168.732 40.7048 169.697 40.4747 170.43 40.0132C171.164 39.5491 171.737 38.9096 172.143 38.096L176.593 39.8098C176.156 40.8675 175.495 41.7778 174.61 42.5406C173.728 43.3034 172.682 43.8819 171.472 44.2748C170.262 44.6676 168.962 44.8647 167.577 44.8647Z" fill="white"/>
<path d="M204.289 23.7347L200.104 19.4478C199.52 18.8507 198.481 18.8507 197.896 19.4478L193.711 23.734C193.415 24.037 193.432 24.5132 193.749 24.7968C194.067 25.081 194.563 25.0645 194.86 24.7607L199 20.5203L203.14 24.7615C203.295 24.9198 203.504 25 203.714 25C203.907 25 204.099 24.9332 204.251 24.7975C204.568 24.5132 204.585 24.0377 204.289 23.7347Z" fill="white"/>
<path d="M199 41C198.586 41 198.183 40.8313 197.897 40.538L193.712 36.2623C193.416 35.9593 193.432 35.4845 193.749 35.2018C194.065 34.9205 194.564 34.9355 194.859 35.2378L199 39.4678L203.141 35.2378C203.436 34.9348 203.935 34.9198 204.251 35.2018C204.568 35.4845 204.585 35.9593 204.289 36.2623L200.104 40.538C199.816 40.8313 199.414 41 199 41Z" fill="white"/>
</svg>
