<svg width="1440" height="1342" viewBox="0 0 1440 1342" fill="none" xmlns="http://www.w3.org/2000/svg">
<path d="M-670.093 883.055L-872.5 964.692L-872.5 1341.34L1514.14 1341.34L1514.14 1.23327e-05L1266.6 325.359C1259.16 335.137 1249.99 343.46 1239.53 349.912L1012.9 489.753C1005.86 494.092 998.321 497.543 990.44 500.026L786.483 564.299C777.059 567.268 768.127 571.618 759.979 577.207L572.968 705.465C549.729 721.403 520.846 726.796 493.422 720.319L327.96 681.239C317.517 678.772 306.746 678.003 296.059 678.959L85.5043 697.805C70.6794 699.131 56.3377 703.751 43.5254 711.326L-161.763 832.699C-169.092 837.033 -176.945 840.412 -185.132 842.756L-394.941 902.826C-408.982 906.846 -423.734 907.742 -438.158 905.45L-616.996 877.034C-634.914 874.188 -653.268 876.269 -670.093 883.055Z" fill="url(#paint0_linear_0_8111)" fill-opacity="0.08"/>
<defs>
<linearGradient id="paint0_linear_0_8111" x1="320.82" y1="1341.34" x2="320.82" y2="6.16637e-06" gradientUnits="userSpaceOnUse">
<stop stop-color="#4433FF"/>
<stop offset="1" stop-color="#291F99"/>
</linearGradient>
</defs>
</svg>
