<svg width="1440" height="1290" viewBox="0 0 1440 1290" fill="none" xmlns="http://www.w3.org/2000/svg">
<path d="M-162.456 851.851L-328.627 927.383L-328.627 1289.34L688.936 1289.34L1706.5 1289.34L1706.5 0.318378L1496.28 311.72C1489.37 321.953 1480.62 330.819 1470.49 337.868L1281.05 469.599C1273.75 474.676 1265.81 478.756 1257.43 481.732L1088.94 541.567C1078.97 545.108 1069.63 550.209 1061.26 556.679L911.943 672.087C887.293 691.139 855.172 697.615 825.066 689.601L699.199 656.097C687.549 652.997 675.435 652.028 663.44 653.237L493.807 670.348C477.567 671.986 461.976 677.574 448.393 686.625L279.559 799.121C271.9 804.224 263.574 808.245 254.817 811.071L84.176 866.13C68.576 871.163 51.9779 872.285 35.8426 869.396L-103.45 844.453C-123.414 840.878 -143.993 843.458 -162.456 851.851Z" fill="url(#paint0_linear_0_8112)" fill-opacity="0.08"/>
<defs>
<linearGradient id="paint0_linear_0_8112" x1="688.936" y1="1289.34" x2="688.936" y2="0.318369" gradientUnits="userSpaceOnUse">
<stop stop-color="#4433FF"/>
<stop offset="1" stop-color="#291F99"/>
</linearGradient>
</defs>
</svg>
