<svg width="1440" height="819" viewBox="0 0 1440 819" fill="none" xmlns="http://www.w3.org/2000/svg">
<path d="M-173.446 539.424L-328.627 588.821L-328.627 818.338L592.757 818.338L1514.14 818.338L1514.14 0.966325L1326.61 195.495C1318.48 203.929 1308.93 210.869 1298.4 215.998L1128.39 298.788C1122.11 301.847 1115.53 304.239 1108.75 305.925L953.639 344.501C945.465 346.534 937.58 349.592 930.172 353.601L790.401 429.256C770.26 440.157 746.988 443.815 724.474 439.619L598.689 416.172C590.328 414.613 581.802 414.127 573.318 414.727L412.143 426.112C399.937 426.974 387.993 430.069 376.904 435.243L221.372 507.817C214.891 510.841 208.104 513.161 201.127 514.737L40.7386 550.979C29.4288 553.534 17.7608 554.103 6.25607 552.661L-130.672 535.49C-145.046 533.688 -159.641 535.03 -173.446 539.424Z" fill="url(#paint0_linear_0_8113)" fill-opacity="0.08"/>
<defs>
<linearGradient id="paint0_linear_0_8113" x1="592.757" y1="818.338" x2="592.757" y2="0.966317" gradientUnits="userSpaceOnUse">
<stop stop-color="#4433FF"/>
<stop offset="1" stop-color="#291F99"/>
</linearGradient>
</defs>
</svg>
